<svg xmlns="http://www.w3.org/2000/svg" width="24" height="23" viewBox="0 0 24 23"><g><g><path fill="#f2bc3b" d="M14.87 6.871c.205.63.793 1.057 1.455 1.057h5.988c1.041 0 1.474 1.332.632 1.944l-4.845 3.52a1.53 1.53 0 0 0-.555 1.71l1.85 5.694c.322.99-.811 1.816-1.654 1.202l-4.844-3.52a1.528 1.528 0 0 0-1.798 0l-4.844 3.52c-.842.614-1.976-.212-1.654-1.202l1.85-5.694a1.53 1.53 0 0 0-.556-1.71l-4.844-3.52c-.842-.612-.41-1.944.632-1.944h5.988c.662 0 1.25-.427 1.454-1.057l1.85-5.694c.322-.991 1.724-.991 2.045 0z"/></g></g></svg>